<?xml version="1.0" encoding="utf-8"?>
<!-- Generator: Adobe Illustrator 15.1.0, SVG Export Plug-In . SVG Version: 6.00 Build 0)  -->
<!DOCTYPE svg PUBLIC "-//W3C//DTD SVG 1.1//EN" "http://www.w3.org/Graphics/SVG/1.1/DTD/svg11.dtd">
<svg version="1.1" id="Camada_1" xmlns="http://www.w3.org/2000/svg" xmlns:xlink="http://www.w3.org/1999/xlink" x="0px" y="0px"
	 width="117px" height="965px" viewBox="0 0 117 965" enable-background="new 0 0 117 965" xml:space="preserve">
<g>
	<g>
		<g>
			<g>
				<path fill="#FFFFFF" d="M84.529,24.5c1.16,0,2.435,0.583,3.411,1.56c0.862,0.862,1.406,1.917,1.532,2.972
					c0.111,0.92-0.121,1.719-0.65,2.25c-0.26,0.258-0.58,0.446-0.953,0.557c-1.803,0.537-3.033,2.207-3.061,4.158
					c-0.01,0.713-0.188,1.729-0.98,2.521C83.016,39.33,81.97,39.5,81.234,39.5c-1.581,0-3.313-0.787-4.63-2.104
					c-2.301-2.301-2.804-5.542-1.122-7.224c0.793-0.793,1.809-0.971,2.521-0.98c1.951-0.027,3.621-1.258,4.158-3.061
					c0.11-0.373,0.299-0.693,0.557-0.953C83.279,24.617,84.014,24.5,84.529,24.5 M84.529,23c-1.098,0-2.118,0.365-2.871,1.117
					c-0.447,0.447-0.757,0.99-0.935,1.586c-0.359,1.21-1.479,1.971-2.741,1.988c-1.362,0.02-2.623,0.482-3.561,1.42
					c-2.271,2.271-1.769,6.455,1.122,9.345C77.215,40.127,79.318,41,81.234,41c1.398,0,2.697-0.465,3.654-1.422
					c0.938-0.938,1.4-2.198,1.42-3.561c0.018-1.262,0.778-2.382,1.988-2.742c0.596-0.177,1.139-0.486,1.586-0.934
					c1.783-1.785,1.389-5.072-0.882-7.343C87.688,23.686,86.035,23,84.529,23L84.529,23z"/>
			</g>
		</g>
	</g>
	<circle fill="#FFFFFF" cx="83.5" cy="30.5" r="2.5"/>
	<path fill="#FFFFFF" d="M96.002,21.535l0.439-0.439l-0.354-0.354l0.774-0.775c0.185-0.185,0.185-0.482,0-0.667L94.7,17.139
		c-0.185-0.185-0.482-0.185-0.667,0l-0.775,0.774l-0.354-0.354l-0.438,0.439l0.354,0.354l-0.438,0.439l-0.354-0.354l-0.439,0.438
		l0.354,0.354l-0.777,0.776c-0.184,0.185-0.184,0.482,0,0.667l0.021,0.02l-8.485,8.486l2.121,2.121l8.486-8.485l0.02,0.021
		c0.185,0.184,0.482,0.184,0.667,0l0.776-0.777l0.354,0.354l0.438-0.438l-0.354-0.354l0.439-0.438L96.002,21.535z M92.732,20.828
		l-0.439-0.438l2.125-2.125l0.439,0.438L92.732,20.828z M93.61,21.707l-0.438-0.439l2.125-2.125l0.438,0.439L93.61,21.707z"/>
	
		<rect x="77.33" y="33.804" transform="matrix(0.7071 0.7071 -0.7071 0.7071 47.6693 -46.1365)" fill="#FFFFFF" width="4.392" height="1.34"/>
</g>
<g>
	<path fill="#FFFFFF" d="M74.9,85.455v14.041h23.4V85.455H74.9z M96.43,94.742l-0.764,0.705c-0.098-0.018-0.188-0.054-0.29-0.054
		c-0.839,0-1.518,0.628-1.518,1.401c0,0.096,0.039,0.178,0.058,0.268l-0.764,0.705H80.049l-0.764-0.704
		c0.02-0.09,0.059-0.173,0.059-0.269c0-0.773-0.68-1.4-1.519-1.4c-0.103,0-0.192,0.036-0.289,0.053l-0.765-0.705v-4.534l0.764-0.705
		c0.097,0.019,0.188,0.054,0.29,0.054c0.839,0,1.518-0.627,1.518-1.401c0-0.095-0.039-0.177-0.059-0.267l0.765-0.706h13.104
		l0.763,0.704c-0.019,0.09-0.058,0.174-0.058,0.269c0,0.774,0.68,1.401,1.519,1.401c0.103,0,0.191-0.037,0.289-0.054l0.765,0.706
		V94.742z"/>
	<ellipse fill="#FFFFFF" cx="93.035" cy="92.476" rx="1.518" ry="1.401"/>
	<ellipse fill="#FFFFFF" cx="86.688" cy="92.475" rx="3.511" ry="3.24"/>
	<ellipse fill="#FFFFFF" cx="80.165" cy="92.476" rx="1.519" ry="1.401"/>
	<path fill="#FFFFFF" d="M89.247,83.207c-0.522,0.183-0.864,0.605-0.98,1.078h2.909c-0.013-0.087-0.003-0.174-0.032-0.26
		C90.887,83.295,90.037,82.929,89.247,83.207z"/>
	<path fill="#FFFFFF" d="M73.73,88.108l-0.118-0.335l0.118-0.222v-3.267h1.734l0.238-0.451l12.364-4.338l0.953,0.412
		c0.012,0.091,0.002,0.183,0.034,0.271c0.256,0.73,1.106,1.098,1.896,0.819c0.098-0.034,0.17-0.098,0.256-0.146l0.954,0.412
		l1.06,3.02h1.983l-2.85-8.124l-22.082,7.747l3.458,9.854V88.108z"/>
	<path fill="#FFFFFF" d="M82.646,83.572c-0.466,0.164-0.877,0.41-1.225,0.713h4.832C85.36,83.433,83.973,83.108,82.646,83.572z"/>
</g>
<g>
	<path fill-rule="evenodd" clip-rule="evenodd" fill="#FFFFFF" d="M100.54,151.776c0.281-1.695-0.051-4.371-0.75-5.313
		c-0.412-0.559-1.109-0.714-1.629-0.988c-0.017-1.925,0.166-3.878-0.113-5.612c-0.384,0.083-1.197-0.073-1.444,0.145
		c0.066,1.4,0.11,3.508,0.091,5.251c-0.377-0.03-0.902,0.092-1.157-0.063c0.089-0.946,0.015-2.226-0.027-3.144
		c-0.446,0.02-1.233-0.002-1.467,0.229c0,0.639,0.078,1.918,0.152,2.868c-1.776,0.205-3.55-0.071-5.292-0.041
		c-0.111-0.275-0.021-0.755-0.164-1.001c-1.34,0.293-2.292-0.574-3.469,0.035c-0.285,0.148-0.503,0.678-0.764,0.933
		c-0.2,0.201-1.907,1.56-1.988,1.563c-0.242,0.008-1.012-0.824-1.165-0.915c-0.702-0.406-1.347-0.481-1.935-0.827
		c0.058-0.504-0.029-0.974-0.65-0.937c-1.609,0.09-2.781,0-4.199,0.042c-0.162,0.25-0.074,0.778-0.24,1.021
		c-1.441,0.173-2.23-0.019-3.323,0.132c-0.356,1.087-0.29,2.009-0.2,2.855c0.942,0.214,1.252-0.008,2.706,0.028
		c-1.372,1.423-2.395,2.813-2.651,4.73c-0.428,3.187,2.553,6.745,5.624,7.193c3.977,0.581,6.458-1.4,7.909-3.396
		c0.865-0.042,1.682-0.134,2.621-0.104c0.375,0.071,0.373-0.06,0.382-0.235c-0.054-0.661-0.17-1.378,0.06-1.928
		c2.086,0.102,3.994,0.038,5.831,0.365c-0.345,0.557-0.542,1.213-0.535,1.917c0.019,1.985,1.644,3.575,3.626,3.556
		c1.986-0.021,3.577-1.645,3.558-3.627c-0.01-0.862-0.319-1.647-0.831-2.262C99.927,154.081,100.366,152.809,100.54,151.776z
		 M78.079,155.795c-1.521,0.015-2.768-1.206-2.781-2.729c-0.018-1.521,1.203-2.768,2.726-2.782c1.521-0.016,2.767,1.205,2.782,2.729
		C80.822,154.535,79.602,155.778,78.079,155.795z M96.358,158.07c-0.842,0.01-1.532-0.666-1.541-1.509
		c-0.01-0.843,0.668-1.533,1.51-1.541c0.844-0.01,1.533,0.668,1.541,1.511C97.876,157.371,97.2,158.063,96.358,158.07z"/>
</g>
<g>
	<circle fill="#FFFFFF" cx="85.254" cy="203.021" r="3"/>
	<path fill="#FFFFFF" d="M88.254,216.021c0,0,1.625,0.969,3.297,2.109c0.898,0.612,1.703,1.016,1.703,2.391s-1.688,1.5-2.641,1.5
		c-0.791,0-6.685,0-7.242,0c-0.379,0-0.992-0.362-0.992-1.066c0-0.84,0.961-0.931,2.219-1.105c2.023-0.28,4.198-0.595,4.198-0.595
		l-3.146-1.044c0,0,0.087-0.077-1.329,0.396c-1.783,0.596-3.176,0.962-3.176,2.18c0,0.953,0.813,1.234,0.813,1.234s-1.869,0-2.703,0
		c-1.25,0-2-0.594-2-1.5c0-0.954,0.793-1.595,1.912-2.476c0.963-0.759,3.088-2.024,3.088-2.024H88.254z"/>
	<polyline fill="#FFFFFF" points="82.754,209.004 84.254,214.523 87.754,217.021 	"/>
	<path fill="#FFFFFF" d="M87.698,208.046c0,0-2.328-1.025-4.289-1.025s0,10.108,0,10.108h2.881l0.619-4.833l1.063,2.569
		L87.698,208.046z"/>
	<polyline fill="#FFFFFF" points="87.754,209.004 86.254,214.523 82.754,217.021 	"/>
	<path fill="#FFFFFF" d="M82.811,208.046c0,0,2.328-1.025,4.289-1.025s0,10.108,0,10.108h-2.875l-0.625-4.833l-1.063,2.569
		L82.811,208.046z"/>
</g>
<g>
	<g>
		<path fill="#FFFFFF" d="M84.75,259.766l-1.083,0.736h1.49c-0.146,0.311-0.229,0.657-0.229,1.023c0,1.336,1.081,2.416,2.416,2.416
			s2.417-1.08,2.417-2.416c0-0.366-0.084-0.713-0.229-1.023h0.481v-0.738c0,0-2.251-0.719-3.257-1.109
			c-0.907-0.352-1.931-1.244-2.619-1.242c-0.406,0.002-0.654,0.387-0.353,1.008C84.087,259.041,84.75,259.766,84.75,259.766z"/>
		<path fill="#FFFFFF" d="M75.73,260.346c0.083-0.125,0.191-0.222,0.312-0.294l-0.135-3.292c0-1.099,0.413-1.178,0.608-1.178
			c0.196,0,0.659,0.179,0.609,1.138l-0.167,3.294c0.036,0.018,0.073,0.033,0.108,0.057l6.745,4.438h7.104
			c0.499,0,0.925,0.309,1.1,0.746c0.054,0.118,0.087,0.249,0.087,0.389v8.11c0,0.519-0.42,0.939-0.939,0.939
			s-0.939-0.421-0.939-0.939v-6.589h-0.22v16c0,0.693-0.561,1.254-1.254,1.254c-0.692,0-1.253-0.561-1.253-1.254v-8.276H86.63v8.276
			c0,0.693-0.562,1.254-1.254,1.254s-1.254-0.561-1.254-1.254v-16l-2.106-1.521c0-0.004,0-0.006,0-0.01l-5.17-3.4l-0.002,0.049
			c0,0.195-0.159,0.354-0.354,0.354c-0.196,0-0.356-0.159-0.356-0.354l-0.021-0.532l-0.104-0.067
			C75.563,261.388,75.439,260.79,75.73,260.346z"/>
	</g>
	<rect x="90.394" y="264.508" fill="#FFFFFF" width="0.397" height="1.044"/>
	<rect x="89.757" y="264.508" fill="#FFFFFF" width="0.396" height="1.044"/>
	<polygon fill="#FFFFFF" points="83.188,265.348 83.512,265.578 84.114,264.725 83.789,264.496 	"/>
	<polygon fill="#FFFFFF" points="82.667,264.982 82.991,265.211 83.593,264.357 83.269,264.129 	"/>
	<path fill="#FFFFFF" d="M87.524,266.602c0,0.797,0.783,1.039,0.783,1.039s0.784-0.133,0.784-1.039c0-0.375,0-0.532,0-0.532
		s-0.212,0.075-0.376,0.075c-0.162,0-0.408-0.391-0.408-0.391s-0.243,0.391-0.443,0.391c-0.207,0-0.34-0.075-0.34-0.075
		S87.524,266.295,87.524,266.602z"/>
</g>
<path fill="#FFFFFF" d="M92.231,330.928c0-5.563-7.231-14.523-7.231-14.523s-7.23,8.961-7.23,14.523
	C77.77,341.235,92.231,341.235,92.231,330.928z M85,325.396c0,0,3.722,4.591,3.722,7.441c0,5.279-7.441,5.279-7.441,0
	C81.28,329.987,85,325.396,85,325.396z M94.474,329.469c0.008,0.188,0.014,0.379,0.014,0.571c0,5.745-4.247,10.404-9.487,10.404
	c-5.238,0-9.487-4.659-9.487-10.404c0-0.192,0.006-0.383,0.016-0.571c-0.597,1.311-0.932,2.766-0.932,4.3
	c0,5.747,4.657,10.405,10.403,10.405s10.403-4.658,10.403-10.405C95.403,332.234,95.068,330.779,94.474,329.469z"/>
<g>
	<path fill="#FFFFFF" d="M92.481,382.261l-11.78-1.636l7.414-2.837v2.556l1.298,0.181v-3.679c0-0.215-0.106-0.415-0.281-0.535
		c-0.176-0.122-0.4-0.148-0.6-0.07l-10.649,4.075l0.002,0.007c-0.069,0.027-0.139,0.059-0.195,0.11
		c-0.143,0.122-0.224,0.302-0.224,0.489v20.252c0,0.323,0.239,0.598,0.56,0.643l14.278,1.982c0.03,0.002,0.06,0.006,0.089,0.006
		c0.157,0,0.308-0.056,0.427-0.16c0.142-0.123,0.224-0.302,0.224-0.49v-20.252C93.043,382.579,92.803,382.305,92.481,382.261z
		 M91.745,402.41l-12.982-1.802v-18.942l12.982,1.803V402.41z M85.113,394.088c0.194,0.027,0.388,0.041,0.577,0.041
		c2.106,0,3.695-1.638,3.695-3.81c0-2.371-1.884-4.47-4.198-4.681c-2.285-0.211-4.065,1.496-4.065,3.793
		C81.122,391.724,82.875,393.77,85.113,394.088z M88.719,389.951l-0.598-0.068c-0.031-0.467-0.134-0.935-0.291-1.384l0.485,0.051
		C88.531,388.984,88.672,389.459,88.719,389.951z M85.702,388.279c0.061,0.381,0.101,0.824,0.115,1.335l-1.307-0.152
		c0.011-0.501,0.047-0.932,0.103-1.296L85.702,388.279z M84.746,387.527c0.113-0.428,0.254-0.745,0.397-0.984
		c0.15,0.268,0.297,0.614,0.419,1.068L84.746,387.527z M84.514,390.115l1.305,0.152c-0.011,0.508-0.046,0.943-0.104,1.311
		l-1.088-0.141C84.566,391.059,84.527,390.62,84.514,390.115z M85.581,392.215c-0.113,0.426-0.255,0.74-0.399,0.972
		c-0.148-0.271-0.297-0.619-0.416-1.077L85.581,392.215z M86.233,392.301l0.556,0.07c-0.249,0.354-0.546,0.644-0.873,0.83
		C86.033,392.959,86.142,392.661,86.233,392.301z M86.361,391.661c0.058-0.378,0.099-0.813,0.11-1.317l1.001,0.118
		c-0.034,0.456-0.156,0.9-0.337,1.301L86.361,391.661z M82.939,389.932l0.095,0.012l0.821,0.096
		c0.011,0.497,0.051,0.921,0.105,1.311l-0.678-0.088C83.106,390.832,82.983,390.379,82.939,389.932z M84.079,392.02
		c0.068,0.305,0.145,0.584,0.229,0.818c-0.25-0.246-0.477-0.545-0.675-0.875L84.079,392.02z M87.501,392.465l0.412,0.053
		c-0.277,0.301-0.615,0.543-0.996,0.709C87.135,393.004,87.333,392.748,87.501,392.465z M87.804,391.849
		c0.165-0.411,0.275-0.854,0.313-1.313l0.607,0.071c-0.04,0.479-0.174,0.924-0.385,1.311L87.804,391.849z M87.467,389.807
		l-0.993-0.117c-0.011-0.504-0.046-0.949-0.102-1.342l0.732,0.076C87.292,388.866,87.421,389.338,87.467,389.807z M86.252,387.684
		c-0.077-0.336-0.166-0.627-0.265-0.877c0.283,0.252,0.545,0.57,0.767,0.93L86.252,387.684z M84.382,386.595
		c-0.107,0.237-0.207,0.524-0.292,0.865l-0.499-0.052C83.816,387.073,84.087,386.792,84.382,386.595z M83.965,388.098
		c-0.056,0.373-0.094,0.8-0.106,1.288l-0.926-0.107c0.036-0.438,0.15-0.864,0.319-1.253L83.965,388.098z M82.287,389.202
		l-0.489-0.058c0.036-0.451,0.153-0.865,0.342-1.234l0.433,0.044C82.424,388.346,82.322,388.768,82.287,389.202z M82.296,389.857
		c0.027,0.441,0.114,0.883,0.257,1.311l-0.373-0.049c-0.199-0.415-0.326-0.857-0.373-1.318L82.296,389.857z M82.607,391.83
		l0.229,0.029c0.101,0.207,0.21,0.404,0.333,0.593C82.961,392.264,82.775,392.056,82.607,391.83z M87.882,387.853l-0.345-0.036
		c-0.14-0.271-0.296-0.531-0.471-0.77C87.373,387.275,87.647,387.547,87.882,387.853z M83.321,386.67
		c-0.172,0.198-0.324,0.422-0.459,0.662l-0.317-0.033C82.766,387.045,83.027,386.836,83.321,386.67z"/>
</g>
<g>
	<path fill="#FFFFFF" d="M98.958,449.919c0,0-8.111-1.824-11.987,2.052c-2.838,2.84-2.619,7.945-2.299,10.475
		c4.901-4.707,9.435-7.677,9.435-7.677s-2.967,4.536-7.678,9.435c2.532,0.321,7.638,0.539,10.475-2.299
		C100.782,458.029,98.958,449.919,98.958,449.919z M90.226,447.209c-2.052-5.834-8.888-10.162-8.888-10.162
		s-9.466,5.988-9.466,13.375c0,5.41,5.071,10.066,7.79,12.172c0.183-9.156,1.676-20.32,1.676-20.32s0.72,5.391,1.219,11.752
		c0.508-1.467,1.281-2.863,2.443-4.025C86.324,448.676,88.097,447.738,90.226,447.209z"/>
</g>
<g>
	<g>
		<path fill="#FFFFFF" d="M86,499.725c5.666,0,10.275,4.609,10.275,10.275S91.666,520.275,86,520.275S75.725,515.666,75.725,510
			S80.334,499.725,86,499.725 M86,498c-6.627,0-12,5.373-12,12s5.373,12,12,12s12-5.373,12-12S92.627,498,86,498L86,498z"/>
	</g>
	<polygon fill="#FFFFFF" points="83.43,513.957 81.84,509.066 86,506.045 90.16,509.066 88.57,513.957 	"/>
	<polygon fill="#FFFFFF" points="88.19,498.975 89.543,501.414 86,502.922 82.457,501.414 83.811,498.975 	"/>
	<polygon fill="#FFFFFF" points="76.189,504.51 78.93,503.977 79.27,507.814 76.739,510.717 74.836,508.676 	"/>
	<polygon fill="#FFFFFF" points="77.746,517.633 78.087,514.863 81.841,515.725 83.82,519.029 81.291,520.207 	"/>
	<polygon fill="#FFFFFF" points="90.709,520.209 88.181,519.029 90.16,515.725 93.913,514.863 94.254,517.633 	"/>
	<polygon fill="#FFFFFF" points="97.164,508.676 95.261,510.717 92.73,507.813 93.07,503.977 95.811,504.51 	"/>
</g>
<path fill="#FFFFFF" d="M82.016,557.12l-9.065,4.711c-0.835,0.434-1.517,1.557-1.517,2.496v14.966c0,0.938,0.77,1.708,1.709,1.708
	h8.681c0.939,0,1.709-0.77,1.709-1.708v-21.251C83.532,557.101,82.848,556.687,82.016,557.12z M81.335,574.915
	c0,0.191-0.154,0.347-0.345,0.347h-2.381c-0.19,0-0.344-0.155-0.344-0.347v-2.377c0-0.191,0.153-0.347,0.344-0.347h2.381
	c0.19,0,0.345,0.155,0.345,0.347V574.915z M81.335,570.083c0,0.189-0.154,0.344-0.345,0.344h-2.381c-0.19,0-0.344-0.154-0.344-0.344
	v-2.381c0-0.189,0.153-0.346,0.344-0.346h2.381c0.19,0,0.345,0.156,0.345,0.346V570.083z M81.335,565.248
	c0,0.191-0.154,0.345-0.345,0.345h-2.381c-0.19,0-0.344-0.153-0.344-0.345v-2.38c0-0.189,0.153-0.344,0.344-0.344h2.381
	c0.19,0,0.345,0.154,0.345,0.344V565.248z M97.369,564.638H87.027c-0.939,0-1.707,0.77-1.707,1.709v12.946
	c0,0.938,0.768,1.708,1.707,1.708h10.342c0.94,0,1.707-0.77,1.707-1.708v-12.946C99.076,565.407,98.31,564.638,97.369,564.638z
	 M90.148,574.915c0,0.191-0.154,0.347-0.345,0.347h-2.38c-0.19,0-0.345-0.155-0.345-0.347v-2.377c0-0.191,0.154-0.347,0.345-0.347
	h2.38c0.19,0,0.345,0.155,0.345,0.347V574.915z M90.148,570.083c0,0.189-0.154,0.344-0.345,0.344h-2.38
	c-0.19,0-0.345-0.154-0.345-0.344v-2.381c0-0.189,0.154-0.346,0.345-0.346h2.38c0.19,0,0.345,0.156,0.345,0.346V570.083z
	 M94.984,574.915c0,0.191-0.154,0.347-0.345,0.347h-2.38c-0.192,0-0.347-0.155-0.347-0.347v-2.377c0-0.191,0.154-0.347,0.347-0.347
	h2.38c0.19,0,0.345,0.155,0.345,0.347V574.915z M94.984,570.083c0,0.189-0.154,0.344-0.345,0.344h-2.38
	c-0.192,0-0.347-0.154-0.347-0.344v-2.381c0-0.189,0.154-0.346,0.347-0.346h2.38c0.19,0,0.345,0.156,0.345,0.346V570.083z"/>
<path fill="#FFFFFF" d="M80.434,637.154c-2.284,0-4.247,1.361-5.132,3.316c-0.521-0.27-1.112-0.426-1.74-0.426
	c-2.096,0-3.797,1.701-3.797,3.799c0,0.098,0.01,0.191,0.017,0.287h16.116c0.108-0.43,0.17-0.877,0.17-1.342
	C86.067,639.678,83.545,637.154,80.434,637.154z M91.131,637.021c-0.587,0.002-1.063,0.479-1.064,1.064
	c0.001,0.588,0.478,1.063,1.064,1.063s1.063-0.475,1.063-1.063C92.194,637.5,91.718,637.023,91.131,637.021z M76.197,634.029v2.977
	c1.181-0.945,2.667-1.494,4.236-1.494c2.345,0,4.417,1.199,5.634,3.014v-4.244c0.003-1.221,0.995-2.213,2.217-2.215h2.787
	c1.221,0.002,2.215,0.994,2.216,2.215v9.85h2.128c0.992,0,1.806-0.813,1.806-1.807v-8.57l-10.374-10.375L76.197,634.029z
	 M100.216,629.242l-2.995-2.994v-8.432h-5.499v2.932l-4.879-4.879l-13.37,13.373c-0.353,0.352-0.527,0.811-0.527,1.271
	s0.175,0.92,0.527,1.271c0.351,0.354,0.81,0.527,1.271,0.527c0.444,0,0.887-0.162,1.233-0.488l10.866-10.867l10.83,10.828
	c0.351,0.352,0.812,0.527,1.271,0.527c0.461,0,0.92-0.174,1.27-0.527c0.354-0.352,0.529-0.811,0.529-1.271
	S100.568,629.596,100.216,629.242z"/>
<g>
	<path fill="#FFFFFF" d="M78.621,691.257c0,3.978-4.031,3.743-6,3.743c0,0,2.227,1.489,4.016,1.406
		C75.73,698.094,73.621,699,73.621,699c3.797,0,8-0.389,8-5.219L80.42,691L78.621,691.257z"/>
	<path fill="none" stroke="#FFFFFF" stroke-width="2" stroke-linejoin="bevel" stroke-miterlimit="10" d="M91.639,697.988
		c-0.186,0-2.035-0.084-2.035-1.895c0-1.387,1.036-2.075,2.363-2.075c1.489,0,3.642,0.981,3.642,3.757
		c0,2.901-3.166,3.225-3.995,3.225c-0.98,0-4.992-0.298-4.992-4.72c0-5.198,4.063-5.28,7-5.28l-9.496-6.322L79.621,679
		c-2.861,0-6,0.98-6,4.393c0,3.375,2,4.649,2,4.649l4.346,2.696l7.533,8.492"/>
	<path fill="#FFFFFF" d="M86.586,685.448c-3.381,0.548-4.965,3.052-4.965,8.836c-1.85-1.85-3-2.945-3-2.945
		c0-2.886,0.25-7.589,4.813-7.946L86.586,685.448z"/>
</g>
<g>
	<path fill="#FFFFFF" d="M90.752,741.911l-14.067,6.754l-4.443-1.431c-0.626,0.301-1.014,0.486-1.014,0.486s2.104,2.523,3.807,3.905
		c0.826,0.672,5.504-0.534,7.58-1.53l10.789-5.181c1.266-0.607,1.979-1.817,1.674-2.451
		C94.616,741.504,92.001,741.311,90.752,741.911z"/>
	<path fill="#FFFFFF" d="M85.262,757.125c-0.059,0.167-0.237,0.366-0.396,0.443l-1.738,0.834c-0.159,0.076-0.274-0.005-0.256-0.181
		l0.951-9.116c0.019-0.176,0.164-0.383,0.323-0.459l4.634-2.225c0.16-0.076,0.242-0.003,0.184,0.164L85.262,757.125z"/>
	<path fill="#FFFFFF" d="M76.456,743.376l3.819,2.456l3.753-1.803l-5.222-1.834c-0.167-0.059-0.434-0.043-0.593,0.033l-1.738,0.834
		C76.316,743.139,76.308,743.28,76.456,743.376z"/>
</g>
<g>
	<g>
		<g>
			<path fill="#FFFFFF" d="M92.067,813.874c0.827-0.011,1.509,0.654,1.519,1.481c0.011,0.826-0.653,1.508-1.48,1.519
				s-1.508-0.654-1.519-1.481S91.24,813.885,92.067,813.874 M92.049,812.374c-1.657,0.021-2.983,1.381-2.962,3.038
				c0.021,1.657,1.381,2.982,3.038,2.962c1.656-0.021,2.982-1.381,2.961-3.038C95.065,813.679,93.706,812.354,92.049,812.374
				L92.049,812.374z"/>
		</g>
	</g>
	<g>
		<g>
			<path fill="#FFFFFF" d="M79.068,814.038c0.827-0.01,1.509,0.654,1.52,1.481c0.01,0.827-0.654,1.508-1.481,1.519
				s-1.508-0.653-1.519-1.48S78.241,814.049,79.068,814.038 M79.05,812.539c-1.657,0.021-2.983,1.38-2.962,3.037
				c0.021,1.657,1.381,2.982,3.038,2.962c1.656-0.021,2.982-1.381,2.961-3.038C82.066,813.844,80.707,812.518,79.05,812.539
				L79.05,812.539z"/>
		</g>
	</g>
	<g>
		<path fill="#FFFFFF" d="M92.151,804.872l3.365,4.912l0.034,2.721c-0.839-1.01-2.109-1.648-3.521-1.631
			c-1.412,0.019-2.665,0.688-3.479,1.719l-0.097-7.674L92.151,804.872 M92.584,803.367l-4.992,0.063
			c-0.363,0.005-0.652,0.302-0.648,0.665l0.136,10.687c0.004,0.363,0.301,0.652,0.664,0.647l1.344-0.017
			c-0.021-1.657,1.305-3.017,2.962-3.038c1.657-0.021,3.017,1.305,3.037,2.962l1.344-0.017c0.363-0.005,0.652-0.302,0.648-0.665
			l-0.065-5.145c-0.002-0.13-0.041-0.256-0.115-0.362l-3.765-5.496C93.01,803.471,92.803,803.364,92.584,803.367L92.584,803.367z"/>
	</g>
	<g>
		<path fill="#FFFFFF" d="M96.979,809.312l-6.968,0.088L89.96,805.4l4-0.051l-4.025-1.949l-2.343,0.029
			c-0.363,0.005-0.652,0.302-0.648,0.665l0.136,10.687c0.004,0.363,0.301,0.652,0.664,0.647l2.344-0.029
			c-0.015-1.104,0.87-2.012,1.975-2.025s2.011,0.87,2.024,1.975l2.344-0.029c0.363-0.005,0.652-0.302,0.648-0.665l-0.065-5.145
			C97.012,809.442,96.999,809.376,96.979,809.312z"/>
	</g>
	<path fill="#FFFFFF" d="M85.039,801.462l-11.257,0.143c-0.481,0.006-0.866,0.4-0.86,0.882l0.155,12.257
		c0.006,0.481,0.4,0.866,0.882,0.86l2.387-0.03l0.742-0.01c-0.014-1.104,0.87-2.011,1.975-2.025c1.104-0.014,2.011,0.87,2.025,1.975
		l4.128-0.052c0.481-0.006,0.866-0.4,0.86-0.882l-0.155-12.257C85.915,801.841,85.521,801.456,85.039,801.462z"/>
</g>
<g>
	<path fill="#FFFFFF" d="M96,942v-18H74v18H96z M76,926h18v14H76V926z"/>
	<path fill="#FFFFFF" d="M96,921h-3v2h-4v-2h-8v2h-4v-2h-3c-0.553,0-1,0.447-1,1v3c0,0.553,0.447,1,1,1h22c0.553,0,1-0.447,1-1v-3
		C97,921.447,96.553,921,96,921z"/>
	<rect x="78" y="918" fill-rule="evenodd" clip-rule="evenodd" fill="#FFFFFF" width="2" height="4"/>
	<rect x="90" y="918" fill-rule="evenodd" clip-rule="evenodd" fill="#FFFFFF" width="2" height="4"/>
	<rect x="78" y="928" fill-rule="evenodd" clip-rule="evenodd" fill="#FFFFFF" width="2" height="2"/>
	<rect x="82" y="928" fill-rule="evenodd" clip-rule="evenodd" fill="#FFFFFF" width="2" height="2"/>
	<rect x="86" y="928" fill-rule="evenodd" clip-rule="evenodd" fill="#FFFFFF" width="2" height="2"/>
	<rect x="90" y="928" fill-rule="evenodd" clip-rule="evenodd" fill="#FFFFFF" width="2" height="2"/>
	<rect x="78" y="932" fill-rule="evenodd" clip-rule="evenodd" fill="#FFFFFF" width="2" height="2"/>
	<rect x="82" y="932" fill-rule="evenodd" clip-rule="evenodd" fill="#FFFFFF" width="2" height="2"/>
	<rect x="85" y="931" fill-rule="evenodd" clip-rule="evenodd" fill="#FFFFFF" width="4" height="4"/>
	<rect x="90" y="932" fill-rule="evenodd" clip-rule="evenodd" fill="#FFFFFF" width="2" height="2"/>
	<rect x="78" y="936" fill-rule="evenodd" clip-rule="evenodd" fill="#FFFFFF" width="2" height="2"/>
	<rect x="82" y="936" fill-rule="evenodd" clip-rule="evenodd" fill="#FFFFFF" width="2" height="2"/>
	<rect x="86" y="936" fill-rule="evenodd" clip-rule="evenodd" fill="#FFFFFF" width="2" height="2"/>
	<rect x="90" y="936" fill-rule="evenodd" clip-rule="evenodd" fill="#FFFFFF" width="2" height="2"/>
</g>
<g>
	<path fill="#FFFFFF" d="M90.979,878.5H75.396c0.757-2.822,2.409-4.135,4.518-4.689c0.976,0.523,2.091,0.822,3.273,0.822
		c1.184,0,2.299-0.299,3.274-0.822C88.57,874.364,90.223,875.677,90.979,878.5z M77.521,867.166c0-3.129,2.537-5.666,5.667-5.666
		c3.129,0,5.666,2.537,5.666,5.666c0,3.131-2.537,5.668-5.666,5.668C80.058,872.834,77.521,870.297,77.521,867.166z M79.398,869.056
		c0.697,1.395,2.124,2.36,3.789,2.36s3.092-0.966,3.789-2.36H79.398z"/>
	<path fill="#FFFFFF" d="M91.188,871.515c-0.607,0-1.18-0.153-1.682-0.422c-0.961,0.253-1.735,0.815-2.17,1.953
		c0.378,0.13,0.738,0.278,1.071,0.454h6.78c-0.389-1.449-1.236-2.123-2.319-2.407C92.367,871.361,91.795,871.515,91.188,871.515z"/>
	<path fill="#FFFFFF" d="M89.854,867.166c0,0.459-0.06,0.901-0.148,1.334h3.487c-0.369,0.738-1.125,1.25-2.006,1.25
		c-0.639,0-1.205-0.273-1.611-0.702c-0.078,0.263-0.17,0.519-0.277,0.766c0.518,0.423,1.169,0.687,1.889,0.687c1.656,0,3-1.344,3-3
		s-1.344-3-3-3c-0.629,0-1.211,0.194-1.692,0.525C89.725,865.698,89.854,866.416,89.854,867.166z"/>
	<path fill="#FFFFFF" d="M75.188,871.515c0.607,0,1.18-0.153,1.682-0.422c0.961,0.253,1.735,0.815,2.17,1.953
		c-0.378,0.13-0.737,0.278-1.072,0.454h-6.779c0.389-1.449,1.236-2.123,2.319-2.407C74.008,871.361,74.58,871.515,75.188,871.515z"
		/>
	<path fill="#FFFFFF" d="M76.521,867.166c0,0.459,0.06,0.901,0.148,1.334h-3.487c0.369,0.738,1.125,1.25,2.006,1.25
		c0.639,0,1.205-0.273,1.612-0.702c0.077,0.263,0.169,0.519,0.276,0.766c-0.518,0.423-1.169,0.687-1.889,0.687c-1.656,0-3-1.344-3-3
		s1.344-3,3-3c0.629,0,1.211,0.194,1.692,0.525C76.65,865.698,76.521,866.416,76.521,867.166z"/>
</g>
<g>
	<g>
		<g>
			<g>
				<path fill="#3B65DB" d="M28.36,24.5c1.16,0,2.435,0.583,3.411,1.56c0.862,0.862,1.406,1.917,1.532,2.972
					c0.111,0.92-0.121,1.719-0.65,2.25c-0.26,0.258-0.58,0.446-0.953,0.557c-1.803,0.537-3.033,2.207-3.061,4.158
					c-0.01,0.713-0.188,1.729-0.98,2.521c-0.813,0.813-1.858,0.982-2.594,0.982c-1.581,0-3.313-0.787-4.63-2.104
					c-2.301-2.301-2.804-5.542-1.122-7.224c0.793-0.793,1.809-0.971,2.521-0.98c1.951-0.027,3.621-1.258,4.158-3.061
					c0.11-0.373,0.299-0.693,0.557-0.953C27.11,24.617,27.845,24.5,28.36,24.5 M28.36,23c-1.098,0-2.118,0.365-2.871,1.117
					c-0.447,0.447-0.757,0.99-0.935,1.586c-0.359,1.21-1.479,1.971-2.741,1.988c-1.362,0.02-2.623,0.482-3.561,1.42
					c-2.271,2.271-1.769,6.455,1.122,9.345C21.046,40.127,23.149,41,25.065,41c1.398,0,2.697-0.465,3.654-1.422
					c0.938-0.938,1.4-2.198,1.42-3.561c0.018-1.262,0.778-2.382,1.988-2.742c0.596-0.177,1.139-0.486,1.586-0.934
					c1.783-1.785,1.389-5.072-0.882-7.343C31.519,23.686,29.866,23,28.36,23L28.36,23z"/>
			</g>
		</g>
	</g>
	<circle fill="#3B65DB" cx="27.331" cy="30.5" r="2.5"/>
	<path fill="#3B65DB" d="M39.833,21.535l0.439-0.439l-0.354-0.354l0.774-0.775c0.185-0.185,0.185-0.482,0-0.667l-2.161-2.161
		c-0.185-0.185-0.482-0.185-0.667,0l-0.775,0.774l-0.354-0.354l-0.438,0.439l0.354,0.354l-0.438,0.439l-0.354-0.354l-0.439,0.438
		l0.354,0.354l-0.777,0.776c-0.184,0.185-0.184,0.482,0,0.667l0.021,0.02L26.53,29.18l2.121,2.121l8.486-8.485l0.02,0.021
		c0.185,0.184,0.482,0.184,0.667,0l0.776-0.777l0.354,0.354l0.438-0.438l-0.354-0.354l0.439-0.438L39.833,21.535z M36.563,20.828
		l-0.439-0.438l2.125-2.125l0.439,0.438L36.563,20.828z M37.441,21.707l-0.438-0.439l2.125-2.125l0.438,0.439L37.441,21.707z"/>
	
		<rect x="21.162" y="33.804" transform="matrix(0.7071 0.7071 -0.7071 0.7071 31.2178 -6.4191)" fill="#3B65DB" width="4.392" height="1.34"/>
</g>
<g>
	<path fill="#44B752" d="M18.731,85.455v14.041h23.4V85.455H18.731z M40.261,94.742l-0.764,0.705
		c-0.098-0.018-0.188-0.054-0.29-0.054c-0.839,0-1.518,0.628-1.518,1.401c0,0.096,0.039,0.178,0.058,0.268l-0.764,0.705H23.88
		l-0.764-0.704c0.02-0.09,0.059-0.173,0.059-0.269c0-0.773-0.68-1.4-1.519-1.4c-0.103,0-0.192,0.036-0.289,0.053l-0.765-0.705
		v-4.534l0.764-0.705c0.097,0.019,0.188,0.054,0.29,0.054c0.839,0,1.518-0.627,1.518-1.401c0-0.095-0.039-0.177-0.059-0.267
		l0.765-0.706h13.104l0.763,0.704c-0.019,0.09-0.058,0.174-0.058,0.269c0,0.774,0.68,1.401,1.519,1.401
		c0.103,0,0.191-0.037,0.289-0.054l0.765,0.706V94.742z"/>
	<ellipse fill="#44B752" cx="36.866" cy="92.476" rx="1.518" ry="1.401"/>
	<ellipse fill="#44B752" cx="30.519" cy="92.475" rx="3.511" ry="3.24"/>
	<ellipse fill="#44B752" cx="23.996" cy="92.476" rx="1.519" ry="1.401"/>
	<path fill="#44B752" d="M33.078,83.207c-0.522,0.183-0.864,0.605-0.98,1.078h2.909c-0.013-0.087-0.003-0.174-0.032-0.26
		C34.718,83.295,33.868,82.929,33.078,83.207z"/>
	<path fill="#44B752" d="M17.562,88.108l-0.118-0.335l0.118-0.222v-3.267h1.734l0.238-0.451l12.364-4.338l0.953,0.412
		c0.012,0.091,0.002,0.183,0.034,0.271c0.256,0.73,1.106,1.098,1.896,0.819c0.098-0.034,0.17-0.098,0.256-0.146l0.954,0.412
		l1.06,3.02h1.983l-2.85-8.124l-22.082,7.747l3.458,9.854V88.108z"/>
	<path fill="#44B752" d="M26.478,83.572c-0.466,0.164-0.877,0.41-1.225,0.713h4.832C29.191,83.433,27.804,83.108,26.478,83.572z"/>
</g>
<g>
	<path fill-rule="evenodd" clip-rule="evenodd" fill="#C9B435" d="M44.371,151.776c0.281-1.695-0.051-4.371-0.75-5.313
		c-0.412-0.559-1.109-0.714-1.629-0.988c-0.017-1.925,0.166-3.878-0.113-5.612c-0.384,0.083-1.197-0.073-1.444,0.145
		c0.066,1.4,0.11,3.508,0.091,5.251c-0.377-0.03-0.902,0.092-1.157-0.063c0.089-0.946,0.015-2.226-0.027-3.144
		c-0.446,0.02-1.233-0.002-1.467,0.229c0,0.639,0.078,1.918,0.152,2.868c-1.776,0.205-3.55-0.071-5.292-0.041
		c-0.111-0.275-0.021-0.755-0.164-1.001c-1.34,0.293-2.292-0.574-3.469,0.035c-0.285,0.148-0.503,0.678-0.764,0.933
		c-0.2,0.201-1.907,1.56-1.988,1.563c-0.242,0.008-1.012-0.824-1.165-0.915c-0.702-0.406-1.347-0.481-1.935-0.827
		c0.058-0.504-0.029-0.974-0.65-0.937c-1.609,0.09-2.781,0-4.199,0.042c-0.162,0.25-0.074,0.778-0.24,1.021
		c-1.441,0.173-2.23-0.019-3.323,0.132c-0.356,1.087-0.29,2.009-0.2,2.855c0.942,0.214,1.252-0.008,2.706,0.028
		c-1.372,1.423-2.395,2.813-2.651,4.73c-0.428,3.187,2.553,6.745,5.624,7.193c3.977,0.581,6.458-1.4,7.909-3.396
		c0.865-0.042,1.682-0.134,2.621-0.104c0.375,0.071,0.373-0.06,0.382-0.235c-0.054-0.661-0.17-1.378,0.06-1.928
		c2.086,0.102,3.994,0.038,5.831,0.365c-0.345,0.557-0.542,1.213-0.535,1.917c0.019,1.985,1.644,3.575,3.626,3.556
		c1.986-0.021,3.577-1.645,3.558-3.627c-0.01-0.862-0.319-1.647-0.831-2.262C43.758,154.081,44.197,152.809,44.371,151.776z
		 M21.91,155.795c-1.521,0.015-2.768-1.206-2.781-2.729c-0.018-1.521,1.203-2.768,2.726-2.782c1.521-0.016,2.767,1.205,2.782,2.729
		C24.653,154.535,23.433,155.778,21.91,155.795z M40.189,158.07c-0.842,0.01-1.532-0.666-1.541-1.509
		c-0.01-0.843,0.668-1.533,1.51-1.541c0.844-0.01,1.533,0.668,1.541,1.511C41.707,157.371,41.031,158.063,40.189,158.07z"/>
</g>
<g>
	<circle fill="#CC5252" cx="29.085" cy="203.021" r="3"/>
	<path fill="#CC5252" d="M32.085,216.021c0,0,1.625,0.969,3.297,2.109c0.898,0.612,1.703,1.016,1.703,2.391s-1.688,1.5-2.641,1.5
		c-0.791,0-6.685,0-7.242,0c-0.379,0-0.992-0.362-0.992-1.066c0-0.84,0.961-0.931,2.219-1.105c2.023-0.28,4.198-0.595,4.198-0.595
		l-3.146-1.044c0,0,0.087-0.077-1.329,0.396c-1.783,0.596-3.176,0.962-3.176,2.18c0,0.953,0.813,1.234,0.813,1.234s-1.869,0-2.703,0
		c-1.25,0-2-0.594-2-1.5c0-0.954,0.793-1.595,1.912-2.476c0.963-0.759,3.088-2.024,3.088-2.024H32.085z"/>
	<polyline fill="#CC5252" points="26.585,209.004 28.085,214.523 31.585,217.021 	"/>
	<path fill="#CC5252" d="M31.529,208.046c0,0-2.328-1.025-4.289-1.025s0,10.108,0,10.108h2.881l0.619-4.833l1.063,2.569
		L31.529,208.046z"/>
	<polyline fill="#CC5252" points="31.585,209.004 30.085,214.523 26.585,217.021 	"/>
	<path fill="#CC5252" d="M26.642,208.046c0,0,2.328-1.025,4.289-1.025s0,10.108,0,10.108h-2.875l-0.625-4.833l-1.063,2.569
		L26.642,208.046z"/>
</g>
<g>
	<g>
		<path fill="#DD863E" d="M28.581,259.766l-1.083,0.736h1.49c-0.146,0.311-0.229,0.657-0.229,1.023c0,1.336,1.081,2.416,2.416,2.416
			s2.417-1.08,2.417-2.416c0-0.366-0.084-0.713-0.229-1.023h0.481v-0.738c0,0-2.251-0.719-3.257-1.109
			c-0.907-0.352-1.931-1.244-2.619-1.242c-0.406,0.002-0.654,0.387-0.353,1.008C27.918,259.041,28.581,259.766,28.581,259.766z"/>
		<path fill="#DD863E" d="M19.562,260.346c0.083-0.125,0.191-0.222,0.312-0.294l-0.135-3.292c0-1.099,0.413-1.178,0.608-1.178
			c0.196,0,0.659,0.179,0.609,1.138l-0.167,3.294c0.036,0.018,0.073,0.033,0.108,0.057l6.745,4.438h7.104
			c0.499,0,0.925,0.309,1.1,0.746c0.054,0.118,0.087,0.249,0.087,0.389v8.11c0,0.519-0.42,0.939-0.939,0.939
			s-0.939-0.421-0.939-0.939v-6.589h-0.22v16c0,0.693-0.561,1.254-1.254,1.254c-0.692,0-1.253-0.561-1.253-1.254v-8.276h-0.867
			v8.276c0,0.693-0.562,1.254-1.254,1.254s-1.254-0.561-1.254-1.254v-16l-2.106-1.521c0-0.004,0-0.006,0-0.01l-5.17-3.4
			l-0.002,0.049c0,0.195-0.159,0.354-0.354,0.354c-0.196,0-0.356-0.159-0.356-0.354l-0.021-0.532l-0.104-0.067
			C19.394,261.388,19.271,260.79,19.562,260.346z"/>
	</g>
	<rect x="34.225" y="264.508" fill="#DD863E" width="0.397" height="1.044"/>
	<rect x="33.588" y="264.508" fill="#DD863E" width="0.396" height="1.044"/>
	<polygon fill="#DD863E" points="27.019,265.348 27.343,265.578 27.945,264.725 27.62,264.496 	"/>
	<polygon fill="#DD863E" points="26.498,264.982 26.822,265.211 27.424,264.357 27.1,264.129 	"/>
	<path fill="#DD863E" d="M31.355,266.602c0,0.797,0.783,1.039,0.783,1.039s0.784-0.133,0.784-1.039c0-0.375,0-0.532,0-0.532
		s-0.212,0.075-0.376,0.075c-0.162,0-0.408-0.391-0.408-0.391s-0.243,0.391-0.443,0.391c-0.207,0-0.34-0.075-0.34-0.075
		S31.355,266.295,31.355,266.602z"/>
</g>
<path fill="#40C0DD" d="M36.063,330.928c0-5.563-7.231-14.523-7.231-14.523s-7.23,8.961-7.23,14.523
	C21.601,341.235,36.063,341.235,36.063,330.928z M28.831,325.396c0,0,3.722,4.591,3.722,7.441c0,5.279-7.441,5.279-7.441,0
	C25.111,329.987,28.831,325.396,28.831,325.396z M38.305,329.469c0.008,0.188,0.014,0.379,0.014,0.571
	c0,5.745-4.247,10.404-9.487,10.404c-5.238,0-9.487-4.659-9.487-10.404c0-0.192,0.006-0.383,0.016-0.571
	c-0.597,1.311-0.932,2.766-0.932,4.3c0,5.747,4.657,10.405,10.403,10.405s10.403-4.658,10.403-10.405
	C39.234,332.234,38.899,330.779,38.305,329.469z"/>
<g>
	<path fill="#784C9B" d="M36.313,382.261l-11.78-1.636l7.414-2.837v2.556l1.298,0.181v-3.679c0-0.215-0.106-0.415-0.281-0.535
		c-0.176-0.122-0.4-0.148-0.6-0.07l-10.649,4.075l0.002,0.007c-0.069,0.027-0.139,0.059-0.195,0.11
		c-0.143,0.122-0.224,0.302-0.224,0.489v20.252c0,0.323,0.239,0.598,0.56,0.643l14.278,1.982c0.03,0.002,0.06,0.006,0.089,0.006
		c0.157,0,0.308-0.056,0.427-0.16c0.142-0.123,0.224-0.302,0.224-0.49v-20.252C36.874,382.579,36.634,382.305,36.313,382.261z
		 M35.576,402.41l-12.982-1.802v-18.942l12.982,1.803V402.41z M28.944,394.088c0.194,0.027,0.388,0.041,0.577,0.041
		c2.106,0,3.695-1.638,3.695-3.81c0-2.371-1.884-4.47-4.198-4.681c-2.285-0.211-4.065,1.496-4.065,3.793
		C24.953,391.724,26.706,393.77,28.944,394.088z M32.55,389.951l-0.598-0.068c-0.031-0.467-0.134-0.935-0.291-1.384l0.485,0.051
		C32.362,388.984,32.503,389.459,32.55,389.951z M29.533,388.279c0.061,0.381,0.101,0.824,0.115,1.335l-1.307-0.152
		c0.011-0.501,0.047-0.932,0.103-1.296L29.533,388.279z M28.577,387.527c0.113-0.428,0.254-0.745,0.397-0.984
		c0.15,0.268,0.297,0.614,0.419,1.068L28.577,387.527z M28.345,390.115l1.305,0.152c-0.011,0.508-0.046,0.943-0.104,1.311
		l-1.088-0.141C28.397,391.059,28.358,390.62,28.345,390.115z M29.412,392.215c-0.113,0.426-0.255,0.74-0.399,0.972
		c-0.148-0.271-0.297-0.619-0.416-1.077L29.412,392.215z M30.064,392.301l0.556,0.07c-0.249,0.354-0.546,0.644-0.873,0.83
		C29.864,392.959,29.973,392.661,30.064,392.301z M30.192,391.661c0.058-0.378,0.099-0.813,0.11-1.317l1.001,0.118
		c-0.034,0.456-0.156,0.9-0.337,1.301L30.192,391.661z M26.771,389.932l0.095,0.012l0.821,0.096
		c0.011,0.497,0.051,0.921,0.105,1.311l-0.678-0.088C26.938,390.832,26.814,390.379,26.771,389.932z M27.91,392.02
		c0.068,0.305,0.145,0.584,0.229,0.818c-0.25-0.246-0.477-0.545-0.675-0.875L27.91,392.02z M31.332,392.465l0.412,0.053
		c-0.277,0.301-0.615,0.543-0.996,0.709C30.966,393.004,31.164,392.748,31.332,392.465z M31.635,391.849
		c0.165-0.411,0.275-0.854,0.313-1.313l0.607,0.071c-0.04,0.479-0.174,0.924-0.385,1.311L31.635,391.849z M31.298,389.807
		l-0.993-0.117c-0.011-0.504-0.046-0.949-0.102-1.342l0.732,0.076C31.123,388.866,31.252,389.338,31.298,389.807z M30.083,387.684
		c-0.077-0.336-0.166-0.627-0.265-0.877c0.283,0.252,0.545,0.57,0.767,0.93L30.083,387.684z M28.213,386.595
		c-0.107,0.237-0.207,0.524-0.292,0.865l-0.499-0.052C27.647,387.073,27.918,386.792,28.213,386.595z M27.796,388.098
		c-0.056,0.373-0.094,0.8-0.106,1.288l-0.926-0.107c0.036-0.438,0.15-0.864,0.319-1.253L27.796,388.098z M26.118,389.202
		l-0.489-0.058c0.036-0.451,0.153-0.865,0.342-1.234l0.433,0.044C26.255,388.346,26.153,388.768,26.118,389.202z M26.127,389.857
		c0.027,0.441,0.114,0.883,0.257,1.311l-0.373-0.049c-0.199-0.415-0.326-0.857-0.373-1.318L26.127,389.857z M26.438,391.83
		l0.229,0.029c0.101,0.207,0.21,0.404,0.333,0.593C26.792,392.264,26.606,392.056,26.438,391.83z M31.713,387.853l-0.345-0.036
		c-0.14-0.271-0.296-0.531-0.471-0.77C31.204,387.275,31.479,387.547,31.713,387.853z M27.152,386.67
		c-0.172,0.198-0.324,0.422-0.459,0.662l-0.317-0.033C26.597,387.045,26.858,386.836,27.152,386.67z"/>
</g>
<g>
	<path fill="#93C445" d="M42.789,449.919c0,0-8.111-1.824-11.987,2.052c-2.838,2.84-2.619,7.945-2.299,10.475
		c4.901-4.707,9.435-7.677,9.435-7.677s-2.967,4.536-7.678,9.435c2.532,0.321,7.638,0.539,10.475-2.299
		C44.613,458.029,42.789,449.919,42.789,449.919z M34.057,447.209c-2.052-5.834-8.888-10.162-8.888-10.162
		s-9.466,5.988-9.466,13.375c0,5.41,5.071,10.066,7.79,12.172c0.183-9.156,1.676-20.32,1.676-20.32s0.72,5.391,1.219,11.752
		c0.508-1.467,1.281-2.863,2.443-4.025C30.155,448.676,31.928,447.738,34.057,447.209z"/>
</g>
<g>
	<g>
		<path fill="#CE57B7" d="M29.831,499.725c5.666,0,10.275,4.609,10.275,10.275s-4.609,10.275-10.275,10.275
			S19.556,515.666,19.556,510S24.165,499.725,29.831,499.725 M29.831,498c-6.627,0-12,5.373-12,12s5.373,12,12,12s12-5.373,12-12
			S36.458,498,29.831,498L29.831,498z"/>
	</g>
	<polygon fill="#CE57B7" points="27.261,513.957 25.671,509.066 29.831,506.045 33.991,509.066 32.401,513.957 	"/>
	<polygon fill="#CE57B7" points="32.021,498.975 33.374,501.414 29.831,502.922 26.288,501.414 27.642,498.975 	"/>
	<polygon fill="#CE57B7" points="20.021,504.51 22.761,503.977 23.101,507.814 20.57,510.717 18.667,508.676 	"/>
	<polygon fill="#CE57B7" points="21.577,517.633 21.918,514.863 25.672,515.725 27.651,519.029 25.122,520.207 	"/>
	<polygon fill="#CE57B7" points="34.54,520.209 32.012,519.029 33.991,515.725 37.744,514.863 38.085,517.633 	"/>
	<polygon fill="#CE57B7" points="40.995,508.676 39.092,510.717 36.562,507.813 36.901,503.977 39.642,504.51 	"/>
</g>
<path fill="#B8BC2A" d="M25.847,557.12l-9.065,4.711c-0.835,0.434-1.517,1.557-1.517,2.496v14.966c0,0.938,0.77,1.708,1.709,1.708
	h8.681c0.939,0,1.709-0.77,1.709-1.708v-21.251C27.363,557.101,26.679,556.687,25.847,557.12z M25.166,574.915
	c0,0.191-0.154,0.347-0.345,0.347H22.44c-0.19,0-0.344-0.155-0.344-0.347v-2.377c0-0.191,0.153-0.347,0.344-0.347h2.381
	c0.19,0,0.345,0.155,0.345,0.347V574.915z M25.166,570.083c0,0.189-0.154,0.344-0.345,0.344H22.44c-0.19,0-0.344-0.154-0.344-0.344
	v-2.381c0-0.189,0.153-0.346,0.344-0.346h2.381c0.19,0,0.345,0.156,0.345,0.346V570.083z M25.166,565.248
	c0,0.191-0.154,0.345-0.345,0.345H22.44c-0.19,0-0.344-0.153-0.344-0.345v-2.38c0-0.189,0.153-0.344,0.344-0.344h2.381
	c0.19,0,0.345,0.154,0.345,0.344V565.248z M41.2,564.638H30.858c-0.939,0-1.707,0.77-1.707,1.709v12.946
	c0,0.938,0.768,1.708,1.707,1.708H41.2c0.94,0,1.707-0.77,1.707-1.708v-12.946C42.907,565.407,42.141,564.638,41.2,564.638z
	 M33.979,574.915c0,0.191-0.154,0.347-0.345,0.347h-2.38c-0.19,0-0.345-0.155-0.345-0.347v-2.377c0-0.191,0.154-0.347,0.345-0.347
	h2.38c0.19,0,0.345,0.155,0.345,0.347V574.915z M33.979,570.083c0,0.189-0.154,0.344-0.345,0.344h-2.38
	c-0.19,0-0.345-0.154-0.345-0.344v-2.381c0-0.189,0.154-0.346,0.345-0.346h2.38c0.19,0,0.345,0.156,0.345,0.346V570.083z
	 M38.815,574.915c0,0.191-0.154,0.347-0.345,0.347h-2.38c-0.192,0-0.347-0.155-0.347-0.347v-2.377c0-0.191,0.154-0.347,0.347-0.347
	h2.38c0.19,0,0.345,0.155,0.345,0.347V574.915z M38.815,570.083c0,0.189-0.154,0.344-0.345,0.344h-2.38
	c-0.192,0-0.347-0.154-0.347-0.344v-2.381c0-0.189,0.154-0.346,0.347-0.346h2.38c0.19,0,0.345,0.156,0.345,0.346V570.083z"/>
<path fill="#4C845A" d="M24.265,637.154c-2.284,0-4.247,1.361-5.132,3.316c-0.521-0.27-1.112-0.426-1.74-0.426
	c-2.096,0-3.797,1.701-3.797,3.799c0,0.098,0.01,0.191,0.017,0.287h16.116c0.108-0.43,0.17-0.877,0.17-1.342
	C29.898,639.678,27.376,637.154,24.265,637.154z M34.962,637.021c-0.587,0.002-1.063,0.479-1.064,1.064
	c0.001,0.588,0.478,1.063,1.064,1.063s1.063-0.475,1.063-1.063C36.025,637.5,35.549,637.023,34.962,637.021z M20.028,634.029v2.977
	c1.181-0.945,2.667-1.494,4.236-1.494c2.345,0,4.417,1.199,5.634,3.014v-4.244c0.003-1.221,0.995-2.213,2.217-2.215h2.787
	c1.221,0.002,2.215,0.994,2.216,2.215v9.85h2.128c0.992,0,1.806-0.813,1.806-1.807v-8.57l-10.374-10.375L20.028,634.029z
	 M44.047,629.242l-2.995-2.994v-8.432h-5.499v2.932l-4.879-4.879l-13.37,13.373c-0.353,0.352-0.527,0.811-0.527,1.271
	s0.175,0.92,0.527,1.271c0.351,0.354,0.81,0.527,1.271,0.527c0.444,0,0.887-0.162,1.233-0.488l10.866-10.867l10.83,10.828
	c0.351,0.352,0.812,0.527,1.271,0.527c0.461,0,0.92-0.174,1.27-0.527c0.354-0.352,0.529-0.811,0.529-1.271
	S44.399,629.596,44.047,629.242z"/>
<g>
	<path fill="#A31414" d="M22.452,691.257c0,3.978-4.031,3.743-6,3.743c0,0,2.227,1.489,4.016,1.406
		c-0.906,1.688-3.016,2.594-3.016,2.594c3.797,0,8-0.389,8-5.219L24.251,691L22.452,691.257z"/>
	<path fill="none" stroke="#A31414" stroke-miterlimit="10" d="M35.47,697.988c-0.186,0-2.035-0.084-2.035-1.895
		c0-1.387,1.036-2.075,2.363-2.075c1.489,0,3.642,0.981,3.642,3.757c0,2.901-3.166,3.225-3.995,3.225
		c-0.98,0-4.992-0.298-4.992-4.72c0-5.198,4.063-5.28,7-5.28l-9.496-6.322L23.452,679c-2.861,0-6,0.98-6,4.393
		c0,3.375,2,4.649,2,4.649l4.346,2.696l7.533,8.492"/>
	<path fill="#A31414" d="M30.417,685.448c-3.381,0.548-4.965,3.052-4.965,8.836c-1.85-1.85-3-2.945-3-2.945
		c0-2.886,0.25-7.589,4.813-7.946L30.417,685.448z"/>
</g>
<g>
	<path fill="#487CA3" d="M34.583,741.911l-14.067,6.754l-4.443-1.431c-0.626,0.301-1.014,0.486-1.014,0.486s2.104,2.523,3.807,3.905
		c0.826,0.672,5.504-0.534,7.58-1.53l10.789-5.181c1.266-0.607,1.979-1.817,1.674-2.451
		C38.447,741.504,35.832,741.311,34.583,741.911z"/>
	<path fill="#487CA3" d="M29.093,757.125c-0.059,0.167-0.237,0.366-0.396,0.443l-1.738,0.834c-0.159,0.076-0.274-0.005-0.256-0.181
		l0.951-9.116c0.019-0.176,0.164-0.383,0.323-0.459l4.634-2.225c0.16-0.076,0.242-0.003,0.184,0.164L29.093,757.125z"/>
	<path fill="#487CA3" d="M20.287,743.376l3.819,2.456l3.753-1.803l-5.222-1.834c-0.167-0.059-0.434-0.043-0.593,0.033l-1.738,0.834
		C20.147,743.139,20.139,743.28,20.287,743.376z"/>
</g>
<g>
	<g>
		<g>
			<path fill="#7F7F7F" d="M35.898,813.874c0.827-0.011,1.509,0.654,1.519,1.481c0.011,0.826-0.653,1.508-1.48,1.519
				s-1.508-0.654-1.519-1.481S35.071,813.885,35.898,813.874 M35.88,812.374c-1.657,0.021-2.983,1.381-2.962,3.038
				c0.021,1.657,1.381,2.982,3.038,2.962c1.656-0.021,2.982-1.381,2.961-3.038C38.896,813.679,37.537,812.354,35.88,812.374
				L35.88,812.374z"/>
		</g>
	</g>
	<g>
		<g>
			<path fill="#7F7F7F" d="M22.899,814.038c0.827-0.01,1.509,0.654,1.52,1.481c0.01,0.827-0.654,1.508-1.481,1.519
				s-1.508-0.653-1.519-1.48S22.072,814.049,22.899,814.038 M22.881,812.539c-1.657,0.021-2.983,1.38-2.962,3.037
				c0.021,1.657,1.381,2.982,3.038,2.962c1.656-0.021,2.982-1.381,2.961-3.038C25.897,813.844,24.538,812.518,22.881,812.539
				L22.881,812.539z"/>
		</g>
	</g>
	<g>
		<path fill="#7F7F7F" d="M35.982,804.872l3.365,4.912l0.034,2.721c-0.839-1.01-2.109-1.648-3.521-1.631
			c-1.412,0.019-2.665,0.688-3.479,1.719l-0.097-7.674L35.982,804.872 M36.415,803.367l-4.992,0.063
			c-0.363,0.005-0.652,0.302-0.648,0.665l0.136,10.687c0.004,0.363,0.301,0.652,0.664,0.647l1.344-0.017
			c-0.021-1.657,1.305-3.017,2.962-3.038c1.657-0.021,3.017,1.305,3.037,2.962l1.344-0.017c0.363-0.005,0.652-0.302,0.648-0.665
			l-0.065-5.145c-0.002-0.13-0.041-0.256-0.115-0.362l-3.765-5.496C36.841,803.471,36.634,803.364,36.415,803.367L36.415,803.367z"
			/>
	</g>
	<g>
		<path fill="#7F7F7F" d="M40.81,809.312l-6.968,0.088l-0.051-3.999l4-0.051l-4.025-1.949l-2.343,0.029
			c-0.363,0.005-0.652,0.302-0.648,0.665l0.136,10.687c0.004,0.363,0.301,0.652,0.664,0.647l2.344-0.029
			c-0.015-1.104,0.87-2.012,1.975-2.025s2.011,0.87,2.024,1.975l2.344-0.029c0.363-0.005,0.652-0.302,0.648-0.665l-0.065-5.145
			C40.843,809.442,40.83,809.376,40.81,809.312z"/>
	</g>
	<path fill="#7F7F7F" d="M28.87,801.462l-11.257,0.143c-0.481,0.006-0.866,0.4-0.86,0.882l0.155,12.257
		c0.006,0.481,0.4,0.866,0.882,0.86l2.387-0.03l0.742-0.01c-0.014-1.104,0.87-2.011,1.975-2.025c1.104-0.014,2.011,0.87,2.025,1.975
		l4.128-0.052c0.481-0.006,0.866-0.4,0.86-0.882l-0.155-12.257C29.746,801.841,29.352,801.456,28.87,801.462z"/>
</g>
<g>
	<path fill="#46AF91" d="M39.831,942v-18h-22v18H39.831z M19.831,926h18v14h-18V926z"/>
	<path fill="#46AF91" d="M39.831,921h-3v2h-4v-2h-8v2h-4v-2h-3c-0.553,0-1,0.447-1,1v3c0,0.553,0.447,1,1,1h22c0.553,0,1-0.447,1-1
		v-3C40.831,921.447,40.384,921,39.831,921z"/>
	<rect x="21.831" y="918" fill-rule="evenodd" clip-rule="evenodd" fill="#46AF91" width="2" height="4"/>
	<rect x="33.831" y="918" fill-rule="evenodd" clip-rule="evenodd" fill="#46AF91" width="2" height="4"/>
	<rect x="21.831" y="928" fill-rule="evenodd" clip-rule="evenodd" fill="#46AF91" width="2" height="2"/>
	<rect x="25.831" y="928" fill-rule="evenodd" clip-rule="evenodd" fill="#46AF91" width="2" height="2"/>
	<rect x="29.831" y="928" fill-rule="evenodd" clip-rule="evenodd" fill="#46AF91" width="2" height="2"/>
	<rect x="33.831" y="928" fill-rule="evenodd" clip-rule="evenodd" fill="#46AF91" width="2" height="2"/>
	<rect x="21.831" y="932" fill-rule="evenodd" clip-rule="evenodd" fill="#46AF91" width="2" height="2"/>
	<rect x="25.831" y="932" fill-rule="evenodd" clip-rule="evenodd" fill="#46AF91" width="2" height="2"/>
	<rect x="28.831" y="931" fill-rule="evenodd" clip-rule="evenodd" fill="#46AF91" width="4" height="4"/>
	<rect x="33.831" y="932" fill-rule="evenodd" clip-rule="evenodd" fill="#46AF91" width="2" height="2"/>
	<rect x="21.831" y="936" fill-rule="evenodd" clip-rule="evenodd" fill="#46AF91" width="2" height="2"/>
	<rect x="25.831" y="936" fill-rule="evenodd" clip-rule="evenodd" fill="#46AF91" width="2" height="2"/>
	<rect x="29.831" y="936" fill-rule="evenodd" clip-rule="evenodd" fill="#46AF91" width="2" height="2"/>
	<rect x="33.831" y="936" fill-rule="evenodd" clip-rule="evenodd" fill="#46AF91" width="2" height="2"/>
</g>
<g>
	<path fill="#AF5715" d="M34.81,878.5H19.227c0.757-2.822,2.409-4.135,4.518-4.689c0.976,0.523,2.091,0.822,3.273,0.822
		c1.184,0,2.299-0.299,3.274-0.822C32.401,874.364,34.054,875.677,34.81,878.5z M21.352,867.166c0-3.129,2.537-5.666,5.667-5.666
		c3.129,0,5.666,2.537,5.666,5.666c0,3.131-2.537,5.668-5.666,5.668C23.889,872.834,21.352,870.297,21.352,867.166z M23.229,869.056
		c0.697,1.395,2.124,2.36,3.789,2.36s3.092-0.966,3.789-2.36H23.229z"/>
	<path fill="#AF5715" d="M35.019,871.515c-0.607,0-1.18-0.153-1.682-0.422c-0.961,0.253-1.735,0.815-2.17,1.953
		c0.378,0.13,0.738,0.278,1.071,0.454h6.78c-0.389-1.449-1.236-2.123-2.319-2.407C36.198,871.361,35.626,871.515,35.019,871.515z"/>
	<path fill="#AF5715" d="M33.686,867.166c0,0.459-0.06,0.901-0.148,1.334h3.487c-0.369,0.738-1.125,1.25-2.006,1.25
		c-0.639,0-1.205-0.273-1.611-0.702c-0.078,0.263-0.17,0.519-0.277,0.766c0.518,0.423,1.169,0.687,1.889,0.687c1.656,0,3-1.344,3-3
		s-1.344-3-3-3c-0.629,0-1.211,0.194-1.692,0.525C33.556,865.698,33.686,866.416,33.686,867.166z"/>
	<path fill="#AF5715" d="M19.019,871.515c0.607,0,1.18-0.153,1.682-0.422c0.961,0.253,1.735,0.815,2.17,1.953
		c-0.378,0.13-0.737,0.278-1.072,0.454h-6.779c0.389-1.449,1.236-2.123,2.319-2.407C17.839,871.361,18.411,871.515,19.019,871.515z"
		/>
	<path fill="#AF5715" d="M20.352,867.166c0,0.459,0.06,0.901,0.148,1.334h-3.487c0.369,0.738,1.125,1.25,2.006,1.25
		c0.639,0,1.205-0.273,1.612-0.702c0.077,0.263,0.169,0.519,0.276,0.766c-0.518,0.423-1.169,0.687-1.889,0.687c-1.656,0-3-1.344-3-3
		s1.344-3,3-3c0.629,0,1.211,0.194,1.692,0.525C20.481,865.698,20.352,866.416,20.352,867.166z"/>
</g>
</svg>
